<?xml version="1.0" encoding="utf-8"?>
<!-- Generator: Adobe Illustrator 21.0.2, SVG Export Plug-In . SVG Version: 6.00 Build 0)  -->
<svg version="1.1" id="Layer_1" xmlns="http://www.w3.org/2000/svg" xmlns:xlink="http://www.w3.org/1999/xlink" x="0px" y="0px"
	 viewBox="0 0 30 30" style="enable-background:new 0 0 30 30;" xml:space="preserve">
<path d="M30,14.5c0-0.2,0-0.5,0-0.7c0-0.2-0.2-0.3-0.4-0.3c-0.2,0-0.4,0.1-0.6,0.3c-0.5,0.3-1,0.7-1.5,1.1c-0.4,0.3-0.8,0.6-1.3,0.9
	c-0.4,0.2-0.8,0.3-1.2,0.1c-0.7-0.3-1.4-0.7-2-1.1c-1.1-0.8-2.2-1.5-3.4-2.3c-1.3-0.8-2.6-1.5-4.1-2.1c-1.4-0.5-2.8-0.8-4.3-0.8
	c-1.7,0-3.3,0.3-4.9,0.8c-1.7,0.6-3.3,1.6-4.6,2.9c-0.8,0.8-1.4,1.7-1.7,2.7c-0.3,1-0.1,1.9,0.6,2.7c0.5,0.5,1.1,0.9,1.7,1.2
	c0.9,0.4,1.8,0.7,2.8,0.9c1.6,0.3,3.2,0.5,4.8,0.5c0.1,0,0.2,0,0.2,0.1c0.4,0.6,0.9,1.1,1.6,1.5c0.6,0.3,1.2,0.6,1.8,0.5
	c0.6,0,1-0.4,1.1-1c0.1-0.5,0-0.9-0.1-1.3c0-0.1,0-0.1,0-0.1c0.9-0.2,1.8-0.5,2.8-0.7c0.6-0.2,1.1-0.3,1.7-0.5c0.1,0,0.2,0,0.3,0.1
	c0.1,0.1,0.3,0.2,0.4,0.3c0.5,0.3,1,0.5,1.5,0.4c0.7,0,1-0.4,0.9-1.1c0-0.2-0.1-0.5-0.2-0.7c0.2-0.1,0.4-0.1,0.6-0.2
	c0.8-0.3,1.6-0.6,2.4-0.8c0.6-0.2,1.1-0.1,1.6,0.2c0.5,0.3,0.9,0.7,1.4,1.1c0.4,0.3,0.9,0.7,1.3,1c0.3,0.2,0.5,0.1,0.6-0.2
	c0,0,0-0.1,0-0.1c0.1-0.5,0-1.1-0.1-1.6c-0.1-0.6-0.1-1.3,0-1.9C29.8,15.6,29.9,15,30,14.5z M4,16.6c-0.6,0-1.1-0.5-1.1-1.1
	c0-0.6,0.5-1.1,1.1-1.1c0.6,0,1.1,0.5,1.1,1.1C5.2,16.1,4.7,16.6,4,16.6z M7.9,17.9c-0.1,0.2-0.2,0.3-0.2,0.5
	c0.7-2.3,0.3-4.3-1.2-6.2c0,0,0,0,0,0c0.3,0.2,0.6,0.5,0.8,0.7c0.8,0.8,1.2,1.8,1.1,2.9C8.4,16.6,8.2,17.2,7.9,17.9z M9.9,13.5
	c0.2-0.7,0.1-1.3-0.4-1.9c0.3-0.1,0.7,0.2,0.9,0.6C10.5,12.7,10.3,13.3,9.9,13.5z M11.4,16c0,0.5-0.4,0.9-0.8,0.8
	c0.5-0.6,0.5-1.2,0.1-1.9C11.1,15.1,11.4,15.5,11.4,16z M12,14.6c0.4-0.7,0.3-1.3-0.2-2c0.5,0,0.9,0.4,0.9,1
	C12.8,14.1,12.4,14.6,12,14.6z M13.6,16.6c0.5-0.6,0.5-1.2,0.1-1.9c0.4,0.1,0.7,0.5,0.7,1C14.4,16.1,14.1,16.6,13.6,16.6z
	 M14.2,13.3c0.3-0.6,0.2-1.1-0.2-1.6c0.3-0.1,0.7,0.2,0.8,0.6C14.8,12.7,14.5,13.3,14.2,13.3z M15.8,15.2c0.2-0.2,0.2-0.5,0.2-0.7
	c0-0.3-0.1-0.5-0.2-0.7c0.4,0,0.6,0.4,0.6,0.8C16.4,14.8,16.1,15.1,15.8,15.2z M17.2,16.9c0.4-0.6,0.4-1,0.2-1.5
	c0.3,0,0.5,0.4,0.5,0.7C17.9,16.6,17.6,16.9,17.2,16.9z M17.4,14.3c0.3-0.6,0.4-1.1,0-1.7c0.4,0,0.7,0.4,0.7,0.8
	C18.1,13.9,17.8,14.3,17.4,14.3z M19.2,15.8c0.3-0.5,0.4-0.9,0.1-1.4c0.3,0,0.5,0.3,0.6,0.7C19.8,15.4,19.6,15.7,19.2,15.8z
	 M18.7,11.3c0-0.1-0.1-0.1-0.1-0.2c-0.4-0.5-0.7-1-1.1-1.5c-0.8-1-1.6-1.8-2.7-2.4c-1.1-0.6-2.3-0.8-3.5-0.6c-1,0.2-1.8,0.7-2.6,1.3
	c-0.5,0.4-1,0.9-1.3,1.5C11.4,8.3,15.2,9,18.7,11.3z"/>
</svg>
