<?xml version="1.0" encoding="utf-8"?>
<!-- Generator: Adobe Illustrator 19.2.1, SVG Export Plug-In . SVG Version: 6.00 Build 0)  -->
<svg version="1.1" id="Layer_4" xmlns="http://www.w3.org/2000/svg" xmlns:xlink="http://www.w3.org/1999/xlink" x="0px" y="0px"
	 viewBox="0 0 260 260" style="enable-background:new 0 0 260 260;" xml:space="preserve">
<style type="text/css">
	.st0{fill-rule:evenodd;clip-rule:evenodd;fill:#FFFFFF;}
	.st1{fill:#FFFFFF;}
</style>
<g>
	<rect x="175.5" y="140.6" class="st0" width="19.6" height="9"/>
	<polygon class="st0" points="127.2,102.1 119.2,126.9 111.3,102.1 102,102.1 94.1,126.9 86.1,102.1 77,102.1 89.2,140.1 
		93.8,140.1 94.1,140 94.4,140.1 98.9,140.1 106.7,115.9 114.4,140.1 118.9,140.1 119.2,140 119.6,140.1 124.1,140.1 136.3,102.1 	
		"/>
	<path class="st0" d="M175.7,121.2C175.7,121.2,175.7,121.2,175.7,121.2c0-0.1,0-0.1,0-0.1V117V81.9h-9v22.8
		c-3.1-2-6.7-3.2-10.7-3.2c0,0-0.1,0-0.1,0c0,0,0,0-0.1,0c-10.9,0-19.8,8.9-19.8,19.8c0,10.9,8.9,19.8,19.8,19.8c0,0,0,0,0.1,0
		c0.4,0,2.2-0.1,4.7-0.7c0.6-0.1,1.2-0.3,1.8-0.5c0,0,0.1,0,0.1,0c0.1,0,0.3-0.1,0.4-0.1c1-0.3,2-0.8,3-1.3c0.3-0.2,0.5-0.3,0.8-0.5
		v0c4.4-2.6,8.6-7.2,9-15.5C175.6,122,175.7,121.6,175.7,121.2z M156,132.1c-6,0-10.9-4.9-10.9-10.9c0-6,4.9-10.9,10.9-10.9
		c6,0,10.9,4.9,10.9,10.9C166.9,127.3,162,132.1,156,132.1z"/>
	<path class="st1" d="M77.3,161.9c0.4-0.1,0.9-0.1,1.4-0.1c0.2,0,0.4,0,0.6,0c0.2,0,0.4,0,0.6,0.1l1.8,9.5l2.2-9.5
		c0.2,0,0.4-0.1,0.6-0.1c0.2,0,0.4,0,0.6,0c0.4,0,0.7,0,1.1,0.1l2.3,9.7l1.8-9.7c0.4-0.1,0.7-0.1,1.1-0.1c0.2,0,0.5,0,0.7,0
		c0.2,0,0.4,0,0.7,0.1l-3,12.6c-0.4,0.1-0.9,0.1-1.3,0.1c-0.4,0-0.9,0-1.5-0.1l-2-8.4l-2.2,8.4c-0.3,0-0.5,0-0.7,0.1
		c-0.2,0-0.5,0-0.7,0c-0.4,0-0.8,0-1.2-0.1L77.3,161.9z"/>
	<path class="st1" d="M94.4,161.9c0.4-0.1,0.9-0.1,1.3-0.1c0.4,0,0.9,0,1.3,0.1v4.9h4.2v-4.9c0.4-0.1,0.9-0.1,1.3-0.1
		c0.4,0,0.9,0,1.3,0.1v12.6c-0.4,0.1-0.9,0.1-1.3,0.1c-0.4,0-0.9,0-1.3-0.1v-5.4H97v5.4c-0.4,0.1-0.9,0.1-1.3,0.1
		c-0.4,0-0.9,0-1.3-0.1V161.9z"/>
	<path class="st1" d="M106.2,161.9c0.4-0.1,0.9-0.1,1.3-0.1c0.4,0,0.9,0,1.3,0.1v12.6c-0.4,0.1-0.9,0.1-1.3,0.1
		c-0.4,0-0.9,0-1.3-0.1V161.9z"/>
	<path class="st1" d="M113.7,164.1h-3.1c-0.1-0.4-0.1-0.7-0.1-1.1c0-0.4,0-0.7,0.1-1.1h8.8c0.1,0.4,0.1,0.7,0.1,1.1
		c0,0.4,0,0.8-0.1,1.1h-3.1v10.4c-0.2,0-0.4,0-0.6,0.1c-0.2,0-0.4,0-0.6,0c-0.2,0-0.4,0-0.6,0c-0.2,0-0.5,0-0.7-0.1V164.1z"/>
	<path class="st1" d="M121.2,161.9h7.1c0.1,0.4,0.1,0.7,0.1,1.1c0,0.4,0,0.8-0.1,1.1h-4.6v2.7h3.6c0.1,0.4,0.1,0.7,0.1,1.1
		c0,0.4,0,0.7-0.1,1.1h-3.6v3.3h4.7c0.1,0.4,0.1,0.7,0.1,1.1c0,0.4,0,0.8-0.1,1.1h-7.3V161.9z"/>
	<path class="st1" d="M134.4,161.9c0.5-0.1,1-0.1,1.5-0.1c0.5,0,1.1-0.1,1.8-0.1c2.2,0,3.9,0.6,5,1.6c1.2,1.1,1.7,2.7,1.7,4.9
		c0,2.2-0.6,3.8-1.8,4.9c-1.2,1-2.9,1.6-5.2,1.6c-0.6,0-1.1,0-1.6-0.1c-0.5,0-1-0.1-1.5-0.1V161.9z M137,172.5c0.1,0,0.2,0,0.4,0
		c0.2,0,0.4,0,0.6,0c0.5,0,1-0.1,1.5-0.2c0.5-0.1,0.9-0.3,1.2-0.7c0.3-0.3,0.6-0.8,0.8-1.3c0.2-0.5,0.3-1.3,0.3-2.1
		c0-0.8-0.1-1.5-0.3-2.1c-0.2-0.6-0.5-1-0.8-1.3c-0.3-0.3-0.7-0.6-1.2-0.7c-0.4-0.1-0.9-0.2-1.4-0.2c-0.2,0-0.4,0-0.6,0
		c-0.2,0-0.4,0-0.6,0V172.5z"/>
	<path class="st1" d="M146.6,161.9c0.4-0.1,0.9-0.1,1.3-0.1c0.4,0,0.9,0,1.3,0.1v12.6c-0.4,0.1-0.9,0.1-1.3,0.1
		c-0.4,0-0.9,0-1.3-0.1V161.9z"/>
	<path class="st1" d="M158.6,168c0.4-0.1,0.9-0.1,1.3-0.1s0.8,0,1.3,0.1v6.2c-0.6,0.2-1.2,0.4-1.9,0.4c-0.7,0.1-1.2,0.1-1.7,0.1
		c-1,0-1.9-0.2-2.7-0.5c-0.8-0.3-1.4-0.8-1.9-1.3c-0.5-0.6-0.9-1.3-1.2-2.1c-0.3-0.8-0.4-1.7-0.4-2.6c0-0.9,0.1-1.8,0.4-2.6
		c0.3-0.8,0.7-1.5,1.2-2.1c0.5-0.6,1.1-1,1.9-1.4c0.7-0.3,1.6-0.5,2.5-0.5c0.6,0,1.1,0,1.6,0.1c0.5,0.1,1,0.2,1.5,0.4
		c0,0.4-0.1,0.7-0.2,1c-0.1,0.3-0.2,0.7-0.4,1c-0.4-0.1-0.8-0.2-1.1-0.3c-0.3-0.1-0.7-0.1-1.1-0.1c-1.1,0-2,0.4-2.6,1.1
		c-0.6,0.7-0.9,1.8-0.9,3.3c0,1.4,0.3,2.5,0.9,3.2c0.6,0.7,1.5,1.1,2.6,1.1c0.2,0,0.4,0,0.5,0c0.2,0,0.3,0,0.4-0.1V168z"/>
	<path class="st1" d="M163.4,161.9c0.4-0.1,0.9-0.1,1.3-0.1c0.4,0,0.9,0,1.3,0.1v12.6c-0.4,0.1-0.9,0.1-1.3,0.1
		c-0.4,0-0.9,0-1.3-0.1V161.9z"/>
	<path class="st1" d="M170.8,164.1h-3.1c-0.1-0.4-0.1-0.7-0.1-1.1c0-0.4,0-0.7,0.1-1.1h8.8c0.1,0.4,0.1,0.7,0.1,1.1
		c0,0.4,0,0.8-0.1,1.1h-3.1v10.4c-0.2,0-0.4,0-0.6,0.1c-0.2,0-0.4,0-0.6,0s-0.4,0-0.6,0c-0.2,0-0.5,0-0.7-0.1V164.1z"/>
	<path class="st1" d="M188.2,161.9c0.4-0.1,0.8-0.1,1.2-0.1c0.4,0,0.8,0,1.3,0.1v10.4h4.4c0,0.2,0.1,0.4,0.1,0.6c0,0.2,0,0.4,0,0.5
		c0,0.2,0,0.4,0,0.6c0,0.2,0,0.4-0.1,0.6h-6.9V161.9z"/>
	<path class="st1" d="M185.4,174.6c0.5,0,0.9,0,1.4-0.1l-3.9-12.6c-0.3,0-0.5-0.1-0.7-0.1c-0.2,0-0.4,0-0.7,0c-0.3,0-0.5,0-0.7,0
		c-0.2,0-0.5,0-0.7,0.1l-4,12.6c0.4,0.1,0.8,0.1,1.3,0.1c0.4,0,0.8,0,1.2-0.1h0l1.4-4.6h0l1.5-5.3l1.1,4.1l1.7,5.9h0
		C184.5,174.6,185,174.6,185.4,174.6z"/>
	<polygon class="st0" points="260,0 260,0 231,0 231,13.3 246.7,13.3 246.7,28.9 260,28.9 	"/>
	<polygon class="st0" points="260,260 260,260 231,260 231,246.7 246.7,246.7 246.7,231 260,231 	"/>
	<polygon class="st0" points="0,0 0,0 29,0 29,13.3 13.3,13.3 13.3,28.9 0,28.9 	"/>
	<polygon class="st0" points="0,260 0,260 29,260 29,246.7 13.3,246.7 13.3,231 0,231 	"/>
</g>
</svg>
