<?xml version="1.0" standalone="no"?>
<!DOCTYPE svg PUBLIC "-//W3C//DTD SVG 20010904//EN"
 "http://www.w3.org/TR/2001/REC-SVG-20010904/DTD/svg10.dtd">
<svg version="1.0" xmlns="http://www.w3.org/2000/svg"
 width="600.000000pt" height="600.000000pt" viewBox="0 0 600.000000 600.000000"
 preserveAspectRatio="xMidYMid meet">
<metadata>
Created by potrace 1.11, written by Peter Selinger 2001-2013
</metadata>
<g transform="translate(0.000000,600.000000) scale(0.100000,-0.100000)"
fill="#000000" stroke="none">
<path d="M2517 4404 c-1 -1 -29 -4 -62 -8 -80 -8 -100 -12 -169 -36 -134 -46
-312 -164 -429 -285 -59 -61 -131 -171 -99 -151 19 11 209 51 298 61 33 4 68
10 79 12 41 9 353 10 425 2 66 -8 192 -28 271 -44 187 -36 489 -161 708 -294
46 -28 86 -51 88 -51 2 0 -11 21 -29 46 -18 26 -52 74 -74 106 -258 370 -536
579 -834 628 -58 9 -168 18 -173 14z"/>
<path d="M2347 3894 c-1 -1 -54 -4 -117 -8 -63 -3 -126 -8 -140 -10 -14 -3
-47 -7 -75 -11 -80 -10 -271 -53 -383 -86 -463 -138 -923 -500 -1072 -844 -44
-100 -54 -148 -55 -250 0 -74 5 -111 18 -145 79 -195 291 -348 625 -451 106
-33 107 -33 212 -54 88 -18 126 -25 160 -30 31 -4 108 -15 135 -20 11 -1 49
-6 85 -10 36 -3 79 -8 95 -11 17 -2 102 -7 190 -10 130 -5 162 -9 170 -21 6
-9 34 -44 62 -78 153 -184 433 -301 575 -242 45 19 95 78 109 129 11 42 14
162 4 178 -2 4 -7 23 -10 42 l-6 34 198 53 c109 28 209 54 222 56 13 2 65 16
115 31 50 14 98 27 106 29 8 2 37 10 63 19 56 17 65 15 127 -29 25 -18 70 -45
100 -61 48 -25 66 -28 145 -28 104 0 145 16 171 66 24 47 20 145 -11 219 -4
12 1 18 22 23 15 4 82 28 148 52 195 74 372 122 432 119 74 -4 163 -49 268
-136 50 -41 110 -90 135 -109 25 -19 47 -37 50 -40 22 -25 175 -130 189 -130
66 0 82 115 46 317 -9 50 -12 122 -10 203 4 133 7 153 31 283 8 45 18 128 21
184 l5 101 -29 16 c-37 19 -92 7 -138 -31 -16 -13 -77 -59 -133 -101 -339
-252 -386 -279 -475 -268 -62 7 -234 96 -387 199 -638 433 -847 557 -1160 692
-195 85 -452 147 -655 160 -116 8 -176 11 -178 9z m-177 -351 c79 -54 97 -111
64 -205 -8 -25 -25 -55 -37 -66 l-22 -21 -1 87 c0 48 -3 94 -6 102 -14 41 -23
58 -45 88 l-24 32 23 0 c13 0 35 -8 48 -17z m764 -31 c10 -9 25 -30 33 -46 13
-25 13 -34 -2 -80 -16 -48 -58 -106 -77 -106 -5 0 -3 10 3 23 17 29 20 123 6
156 -6 14 -19 38 -29 52 -9 14 -15 29 -12 32 8 8 55 -11 78 -31z m-1204 -168
c97 -102 151 -198 174 -308 13 -62 14 -214 1 -294 -7 -51 -62 -212 -77 -227
-6 -7 -7 -5 -4 5 6 15 11 44 23 115 4 22 6 94 6 160 -1 199 -65 400 -186 578
-39 57 -41 64 -19 48 15 -10 52 -45 82 -77z m816 30 c46 -22 75 -72 81 -142 4
-44 1 -67 -12 -92 -21 -40 -53 -69 -78 -70 -16 0 -16 2 -2 38 9 20 18 55 19
76 4 47 -17 131 -37 155 -20 23 -28 51 -16 51 6 0 26 -7 45 -16z m924 -4 c32
-23 59 -91 53 -134 -8 -54 -43 -104 -85 -119 -22 -8 -22 3 -2 51 20 48 20 140
0 180 -9 17 -16 33 -16 37 0 11 23 4 50 -15z m-265 -206 c29 -31 42 -86 29
-122 -5 -13 -24 -36 -42 -50 l-33 -26 8 30 c11 41 8 153 -6 167 -16 16 -14 27
4 27 9 0 27 -12 40 -26z m-1935 -94 c58 -30 94 -90 99 -167 6 -101 -95 -184
-206 -168 -126 17 -194 154 -132 264 47 84 152 115 239 71z m2513 -10 c49 -58
45 -108 -15 -162 -47 -43 -59 -38 -33 12 21 40 25 100 10 143 -16 47 2 51 38
7z m-924 -60 c59 -61 66 -146 19 -213 -18 -25 -75 -63 -83 -55 -2 2 8 28 22
57 32 65 34 139 4 206 -11 25 -16 45 -10 45 5 0 27 -18 48 -40z m-482 -61 c54
-83 37 -202 -35 -231 -58 -24 -63 -20 -32 27 11 16 25 54 31 82 10 51 2 99
-28 171 -12 29 37 -9 64 -49z m1098 -65 c34 -71 11 -149 -54 -183 -32 -18 -37
-8 -15 36 14 28 19 59 19 119 -1 76 1 81 17 70 10 -6 25 -25 33 -42z"/>
</g>
</svg>
